# 3ds Max Wavefront OBJ Exporter v0.97b - (c)2007 guruware
# File Created: 08.01.2015 02:54:58

mtllib Case_LOD3.mtl

#
# object Case
#

v  144.0675 147.6640 747.6790
v  269.3203 141.1564 697.9313
v  144.0675 212.7411 747.6790
v  146.2177 141.1564 744.7525
v  144.0675 134.6485 747.6790
v  272.5455 134.6485 617.4572
v  269.8579 141.1564 618.9202
v  272.5455 147.6640 617.4572
v  235.4535 141.1564 607.2148
v  273.0832 212.1494 617.4572
v  144.0675 69.8673 -746.2159
v  144.0675 134.6485 -746.2159
v  224.1647 141.1564 -743.2898
v  274.6958 134.6485 -617.4572
v  275.2335 70.1631 -617.4572
v  274.6958 147.6640 -617.4572
v  272.0082 141.1564 -620.3836
v  146.2177 141.1564 -743.2898
v  144.0675 147.6640 -746.2159
v  130.6284 134.6485 -709.6369
v  144.0675 212.1494 -746.2159
v  -144.0675 147.6640 -747.6793
v  -269.3203 141.1564 -697.9316
v  -144.0675 212.7411 -747.6793
v  -146.2177 141.1564 -744.7528
v  -144.0675 134.6485 -747.6793
v  -272.5455 134.6485 -617.4572
v  -269.8576 141.1564 -618.9202
v  -272.5455 147.6640 -617.4572
v  -235.4535 141.1564 -607.2148
v  -273.0832 212.1494 -617.4572
v  -274.6958 147.6640 617.4572
v  -224.1647 141.1564 743.2895
v  -274.6958 212.7411 617.4572
v  -272.0079 141.1564 620.3833
v  -274.6958 134.6485 617.4572
v  -144.0675 134.6485 746.2159
v  -146.2177 141.1564 743.2895
v  -144.0675 147.6640 746.2159
v  -144.0675 212.1494 746.2159
v  -177.6655 6.1213 481.3824
v  -98.6433 6.1213 481.3824
v  -177.6655 6.1213 652.5729
v  -98.6433 6.1213 652.5729
v  -177.6655 6.1213 13.1685
v  -177.6655 6.1213 -506.2565
v  -98.6433 6.1213 -654.0366
v  -177.6655 6.1213 -654.0366
v  87.8918 6.1213 -654.0366
v  178.2029 6.1213 -654.0366
v  178.2029 6.1213 -504.7932
v  178.2029 6.1213 13.1685
v  178.2029 6.1213 479.9190
v  178.2029 6.1213 652.5729
v  92.7300 6.1213 652.5729
v  -177.6655 276.4871 481.3824
v  -98.6433 276.4871 481.3824
v  -177.6655 276.4871 13.1685
v  -177.6655 276.4871 652.5729
v  -177.6655 276.4871 -506.2565
v  -98.6433 276.4871 -654.0366
v  -177.6655 276.4871 -654.0366
v  87.8918 276.4871 -654.0366
v  178.2029 276.4871 -654.0366
v  178.2029 276.4871 13.1685
v  178.2029 276.4871 -504.7932
v  178.2029 276.4871 479.9190
v  92.7300 276.4871 652.5729
v  178.2029 276.4871 652.5729
v  -98.6433 276.4871 652.5729
v  272.5455 69.8673 617.4572
v  144.0675 70.1631 747.6790
v  274.6958 212.7411 -617.4572
v  -272.5455 69.8673 -617.4572
v  -144.0675 70.1631 -749.1423
v  -144.0675 69.8673 746.2159
v  -274.6958 70.1631 617.4572
v  -250.2366 154.3197 -642.3312
v  -164.7638 154.3197 724.2683
v  -164.7638 154.3197 -725.7317
v  250.7742 154.3197 -642.3312
v  174.1712 -10.0000 -617.4572
v  144.0675 -10.0000 -651.1100
v  160.7321 11.8895 -605.7518
v  174.1712 292.6084 -617.4572
v  144.0675 292.3125 -651.1100
v  -174.1710 292.6084 617.4572
v  -134.3913 141.1564 711.0997
v  -144.0675 292.3125 651.1100
v  -174.1710 -10.0000 617.4572
v  -144.0675 -10.0000 651.1100
v  -160.7318 11.8895 605.7518
v  144.6051 292.6084 648.1836
v  176.8589 292.3125 617.4572
v  144.6051 -10.0000 648.1836
v  176.8589 -10.0000 617.4572
v  132.7787 11.8895 633.5518
v  -144.6051 292.6084 -648.1839
v  -176.8589 292.3125 -617.4572
v  -144.6051 -10.0000 -648.1839
v  -176.8589 -10.0000 -617.4572
v  -132.7787 11.8895 -633.5521
# 102 vertices

vn 0.0000 0.0000 1.0000
vn 0.0000 0.4101 0.9120
vn 0.9109 0.4125 0.0031
vn 0.9248 0.3805 0.0063
vn 0.3303 -0.0028 -0.9439
vn -0.0000 0.0000 -1.0000
vn 0.0000 0.0000 -1.0000
vn 0.9999 -0.0080 -0.0139
vn 1.0000 0.0083 -0.0000
vn 1.0000 0.0002 -0.0069
vn 0.8982 -0.4395 -0.0070
vn 0.9264 -0.3763 -0.0139
vn 0.0000 -0.4101 -0.9120
vn -0.9387 0.0000 -0.3449
vn 0.0000 0.4101 -0.9120
vn -0.9109 0.4125 -0.0031
vn -0.9247 0.3805 -0.0063
vn -0.3303 -0.0028 0.9439
vn -1.0000 0.0000 -0.0000
vn -0.8964 0.4432 0.0065
vn -0.9243 0.3817 -0.0000
vn -0.8644 0.5027 0.0130
vn 0.0000 -1.0000 -0.0000
vn 0.0000 -1.0000 0.0000
vn 0.0000 1.0000 -0.0000
vn 0.0000 1.0000 0.0000
vn 0.0000 -0.4101 0.9120
vn 1.0000 -0.0042 0.0033
vn 1.0000 -0.0083 -0.0000
vn 1.0000 0.0000 -0.0000
vn 0.8644 0.5027 -0.0130
vn 0.8964 0.4432 -0.0065
vn 0.9243 0.3817 -0.0000
vn -1.0000 -0.0042 -0.0033
vn -1.0000 -0.0083 -0.0000
vn -0.0190 0.0000 -0.9998
vn 0.0000 0.0227 -0.9997
vn -0.0095 0.0113 -0.9999
vn -0.8982 -0.4395 0.0070
vn -0.9264 -0.3764 0.0139
vn -0.9999 -0.0081 0.0069
vn -1.0000 -0.0041 0.0035
vn -0.7052 -0.7090 -0.0000
vn 0.0000 -0.7047 0.7095
vn 0.0000 -0.7047 -0.7095
vn 0.7052 -0.7090 -0.0000
vn -0.7052 0.7090 -0.0000
vn 0.0000 0.7047 -0.7095
vn 0.7052 0.7090 -0.0000
vn 0.0000 0.7047 0.7095
vn 0.8954 -0.4452 0.0061
vn 0.9104 -0.4137 0.0030
vn 0.9243 -0.3817 -0.0000
vn 0.0907 -0.7971 0.5970
vn -0.6928 -0.7209 -0.0175
vn 0.0201 -0.8560 -0.5166
vn -0.3311 -0.6004 0.7280
vn 0.2607 -0.3304 0.9071
vn -0.5442 -0.5143 -0.6629
vn -0.8843 -0.3598 -0.2976
vn 0.6788 -0.7162 -0.1622
vn 0.6438 -0.5101 0.5703
vn -0.8798 0.0000 -0.4753
vn -0.9360 0.0752 -0.3439
vn -0.9109 0.0377 -0.4110
vn -0.8511 0.4218 -0.3127
vn -0.8478 0.4306 -0.3095
vn 0.3507 0.0356 0.9358
vn 0.2925 0.0676 0.9539
vn 0.4073 0.0034 0.9133
vn 0.2465 0.4803 0.8418
vn 0.2477 0.5053 0.8266
vn -0.8494 -0.4227 -0.3160
vn -0.8535 -0.4147 -0.3155
vn -0.0808 0.8530 0.5156
vn 0.5543 0.4882 0.6741
vn 0.6788 0.7184 -0.1521
vn -0.0096 0.5046 0.8633
vn 0.4204 0.0000 0.9074
vn 0.2926 -0.0651 0.9540
vn 0.3575 -0.0326 0.9333
vn 0.0201 0.8567 -0.5154
vn -0.6800 0.7172 -0.1525
vn -0.5262 0.5246 -0.6693
vn -0.7500 0.5994 0.2797
vn 0.2568 -0.4826 0.8373
vn 0.2516 -0.4963 0.8309
vn 0.2542 -0.4895 0.8341
vn -0.8681 0.3868 -0.3112
vn -0.8181 -0.5603 0.1299
vn -0.8954 -0.4452 -0.0061
vn -0.9104 -0.4137 -0.0030
vn -0.9243 -0.3818 -0.0000
vn 0.0808 0.8530 -0.5156
vn -0.5549 0.4880 -0.6738
vn -0.6799 0.7171 0.1533
vn 0.0096 0.5046 -0.8633
vn -0.4204 0.0000 -0.9074
vn -0.2926 -0.0651 -0.9540
vn -0.3575 -0.0326 -0.9333
vn -0.0211 0.8562 0.5162
vn 0.7236 0.6750 0.1440
vn 0.8023 0.3052 0.5129
vn 0.7677 0.5907 -0.2484
vn -0.2568 -0.4826 -0.8374
vn -0.2447 -0.5141 -0.8221
vn -0.2508 -0.4984 -0.8299
vn -0.2501 0.4811 -0.8402
vn -0.2510 0.4967 -0.8308
vn 0.9597 0.0424 0.2779
vn 0.9387 0.0000 0.3449
vn 0.8511 -0.4218 0.3127
vn -0.0916 -0.7972 -0.5968
vn 0.6928 -0.7209 0.0175
vn -0.0196 -0.8562 0.5162
vn 0.3311 -0.6004 -0.7280
vn 0.5445 -0.5144 0.6625
vn 0.8843 -0.3598 0.2976
vn -0.6791 -0.7164 0.1597
vn -0.6439 -0.5087 -0.5715
vn -0.2625 -0.3317 -0.9061
vn 0.8798 0.0000 0.4753
vn 0.9360 0.0752 0.3439
vn 0.9109 0.0377 0.4110
vn 0.8511 0.4218 0.3127
vn -0.3538 0.0339 -0.9347
vn -0.2925 0.0676 -0.9539
vn -0.4131 0.0000 -0.9107
vn 0.8181 -0.5603 -0.1299
vn -0.5163 0.8530 -0.0759
vn -0.8105 0.3449 0.4734
vn 0.1501 0.7172 0.6805
vn -0.9064 0.4192 -0.0522
vn -0.9448 0.1226 0.3037
vn -0.9669 0.0616 0.2475
vn 0.5140 0.8575 0.0245
vn 0.1473 0.7180 -0.6803
vn 0.6668 0.5230 -0.5309
vn -0.2801 0.6101 -0.7412
vn -0.8674 -0.4120 0.2789
vn -0.8378 -0.4844 0.2518
vn -0.8534 -0.4486 0.2656
vn -0.8747 0.4072 0.2629
vn -0.8671 0.4223 0.2641
vn 0.3115 0.3851 -0.8687
vn 0.3044 -0.3269 -0.8947
vn 0.3058 -0.3481 -0.8862
vn -0.5975 -0.7962 0.0949
vn 0.0159 -0.7247 -0.6889
vn 0.5168 -0.8559 0.0215
vn -0.7309 -0.6013 -0.3228
vn -0.9084 -0.3291 0.2578
vn 0.6614 -0.5114 -0.5486
vn 0.3009 -0.3602 -0.8830
vn 0.1565 -0.7132 0.6832
vn -0.5755 -0.5057 0.6428
vn 0.4622 0.0000 -0.8868
vn 0.3294 0.0761 -0.9411
vn 0.3971 0.0382 -0.9170
vn 0.3119 0.3292 -0.8913
vn 0.2992 0.3707 -0.8793
vn 0.3056 0.3500 -0.8855
vn -0.9344 0.0322 0.3547
vn -0.9536 0.0643 0.2943
vn -0.9106 0.0000 0.4133
vn -0.1249 -0.5623 -0.8174
vn 0.5163 0.8530 0.0759
vn 0.6761 0.4875 -0.5524
vn -0.1501 0.7172 -0.6805
vn 0.8614 0.5078 0.0089
vn 0.9106 0.0000 -0.4133
vn 0.9506 -0.0540 -0.3056
vn 0.9325 -0.0270 -0.3602
vn -0.5140 0.8575 -0.0245
vn -0.1473 0.7180 0.6803
vn -0.6668 0.5230 0.5309
vn 0.2801 0.6100 0.7412
vn 0.8674 -0.4120 -0.2789
vn 0.8378 -0.4844 -0.2518
vn 0.8534 -0.4486 -0.2656
vn 0.8747 0.4072 -0.2629
vn 0.8671 0.4223 -0.2641
vn -0.3115 0.3851 0.8687
vn -0.3044 -0.3269 0.8947
vn -0.3058 -0.3481 0.8862
vn 0.5981 -0.7961 -0.0924
vn -0.0159 -0.7247 0.6889
vn -0.5168 -0.8559 -0.0215
vn 0.7309 -0.6013 0.3228
vn 0.9111 -0.3255 -0.2530
vn -0.6614 -0.5114 0.5486
vn -0.3009 -0.3602 0.8830
vn -0.1615 -0.7144 -0.6809
vn 0.5731 -0.5099 -0.6415
vn -0.4622 0.0000 0.8868
vn -0.3294 0.0761 0.9411
vn -0.3971 0.0382 0.9170
vn -0.3119 0.3292 0.8913
vn -0.2992 0.3706 0.8793
vn -0.3056 0.3500 0.8855
vn 0.9374 0.0367 -0.3463
vn 0.9536 0.0643 -0.2943
vn 0.9177 0.0090 -0.3971
vn 0.1249 -0.5623 0.8174
# 204 vertex normals

vt 0.6500 0.9710 0.0000
vt 0.3244 0.9816 0.0000
vt 0.6469 0.8311 0.0000
vt 0.6500 0.9816 0.0000
vt 0.1718 0.9710 0.0000
vt 0.1718 0.9816 0.0000
vt 0.7068 0.3087 0.0000
vt 0.6603 0.3004 0.0000
vt 0.7068 0.3867 0.0000
vt 0.1706 0.8311 0.0000
vt 0.6603 0.2889 0.0000
vt 0.4768 0.3823 0.0000
vt 0.4761 0.2979 0.0000
vt 0.6483 0.3823 0.0000
vt 0.6483 0.2979 0.0000
vt 0.0049 0.3823 0.0000
vt 0.5056 0.3823 0.0000
vt 0.6483 0.0982 0.0000
vt 0.6483 0.0017 0.0000
vt 0.5033 0.0017 0.0000
vt 0.0049 0.0017 0.0000
vt 0.4739 0.0017 0.0000
vt 0.6483 0.0932 0.0000
vt 0.4755 0.5401 0.0000
vt 0.6465 0.5401 0.0000
vt 0.6256 0.4005 0.0000
vt 0.0034 0.9905 0.0000
vt 0.0034 0.8917 0.0000
vt 0.1439 0.9773 0.0000
vt 0.0054 0.5401 0.0000
vt 0.5043 0.5401 0.0000
vt 0.0034 0.6581 0.0000
vt 0.0034 0.5453 0.0000
vt 0.5020 0.5401 0.0000
vt 0.4727 0.5401 0.0000
vt 0.0034 0.6523 0.0000
vt 0.4692 0.5468 0.0000
vt 0.3405 0.5468 0.0000
vt 0.7068 0.0026 0.0000
vt 0.6603 0.0026 0.0000
vt 0.7068 0.0554 0.0000
vt 0.7068 0.9972 0.0000
vt 0.6603 0.9970 0.0000
vt 0.7068 0.2184 0.0000
vt 0.7068 0.7879 0.0000
vt 0.7068 0.2889 0.0000
vt 0.7068 0.2998 0.0000
vt 0.7068 0.7165 0.0000
vt 0.7068 0.7094 0.0000
vt 0.7068 0.5467 0.0000
vt 0.7068 0.6452 0.0000
vt 0.7068 0.7022 0.0000
vt 0.7068 0.5016 0.0000
# 53 texture coords

g Case
usemtl 01___Default
s 1
f 1/1/1 2/2/1 3/3/1 
f 4/4/2 5/1/2 2/2/2 
f 2/2/3 6/5/3 7/6/4 
f 8/7/5 9/8/5 10/9/5 
f 11/10/6 12/5/7 13/2/6 
f 13/2/8 14/1/9 15/3/10 
f 13/2/11 16/1/11 17/4/12 
f 18/6/13 19/5/13 13/2/13 
f 19/7/14 20/11/14 21/9/14 
f 22/1/7 23/2/7 24/3/7 
f 25/4/15 26/1/15 23/2/15 
f 23/2/16 27/5/16 28/6/17 
f 29/7/18 30/8/18 31/9/18 
f 32/1/19 33/2/19 34/3/19 
f 35/4/20 36/1/21 33/2/22 
f 33/2/2 37/5/2 38/6/2 
f 33/2/1 39/5/1 40/10/1 
f 41/12/23 42/13/24 43/14/23 
f 43/14/23 42/13/24 44/15/23 
f 45/16/23 42/13/24 41/12/23 
f 46/17/23 42/13/24 45/16/23 
f 46/17/23 47/15/23 42/13/24 
f 48/14/23 47/15/23 46/17/23 
f 47/15/23 49/18/23 42/13/24 
f 49/18/23 50/19/24 42/13/24 
f 42/13/24 50/19/24 51/20/23 
f 51/20/23 52/21/24 42/13/24 
f 53/22/23 42/13/24 52/21/24 
f 54/19/23 55/23/23 53/22/23 
f 55/23/23 42/13/24 53/22/23 
f 44/15/23 42/13/24 55/23/23 
f 56/12/25 57/13/25 58/16/25 
f 59/14/25 57/13/25 56/12/25 
f 58/16/25 57/13/25 60/17/25 
f 60/17/25 61/15/25 62/14/25 
f 57/13/25 61/15/25 60/17/25 
f 57/13/25 63/18/25 61/15/25 
f 57/13/25 64/19/25 63/18/25 
f 57/13/25 65/21/25 66/20/26 
f 66/20/26 64/19/25 57/13/25 
f 65/21/25 57/13/25 67/22/25 
f 67/22/25 68/23/25 69/19/25 
f 67/22/25 57/13/25 68/23/25 
f 68/23/25 57/13/25 70/15/25 
f 70/15/25 57/13/25 59/14/25 
s 2
f 1/1/27 4/4/27 2/2/27 
f 2/2/28 8/5/29 10/10/28 
f 71/10/30 6/5/30 2/2/30 
f 2/2/1 5/1/1 72/3/1 
f 12/5/15 18/6/15 13/2/15 
f 13/2/31 17/4/32 14/1/33 
f 16/1/30 13/2/30 73/3/30 
f 13/2/7 19/5/7 21/10/7 
f 22/1/13 25/4/13 23/2/13 
f 23/2/34 29/5/35 31/10/34 
f 74/10/19 27/5/19 23/2/19 
f 23/2/36 26/1/37 75/3/38 
f 32/1/39 35/4/40 33/2/39 
f 33/2/27 38/6/27 39/5/27 
f 76/10/1 37/5/1 33/2/1 
f 33/2/41 36/1/19 77/3/42 
f 41/24/43 43/25/43 78/26/43 
f 43/27/44 44/28/44 79/29/44 
f 78/26/43 45/30/43 41/24/43 
f 45/30/43 78/26/43 46/31/43 
f 46/31/43 78/26/43 48/25/43 
f 48/27/45 80/29/45 47/28/45 
f 47/28/45 80/29/45 49/32/45 
f 49/32/45 80/29/45 50/33/45 
f 51/34/46 81/26/46 52/30/46 
f 50/25/46 81/26/46 51/34/46 
f 52/30/46 81/26/46 53/35/46 
f 81/26/46 54/25/46 53/35/46 
f 79/29/44 44/28/44 55/36/44 
f 79/29/44 55/36/44 54/33/44 
f 78/26/47 59/25/47 56/24/47 
f 56/24/47 58/30/47 78/26/47 
f 60/31/47 78/26/47 58/30/47 
f 62/25/47 78/26/47 60/31/47 
f 61/28/48 80/29/48 62/27/48 
f 63/32/48 80/29/48 61/28/48 
f 66/34/49 81/26/49 64/25/49 
f 64/33/48 80/29/48 63/32/48 
f 65/30/49 81/26/49 66/34/49 
f 67/35/49 69/25/49 81/26/49 
f 67/35/49 81/26/49 65/30/49 
f 69/33/50 68/36/50 79/29/50 
f 68/36/50 70/28/50 79/29/50 
f 79/29/50 70/28/50 59/27/50 
s 3
f 2/2/51 7/6/52 8/5/53 
f 82/37/54 83/38/55 13/2/56 
f 82/39/54 84/40/57 83/41/55 
f 82/42/54 20/11/58 84/43/57 
f 83/38/55 11/10/59 13/2/56 
f 83/41/55 20/11/60 11/44/59 
f 13/2/61 15/3/62 82/37/54 
f 15/45/62 20/11/58 82/42/54 
f 11/44/63 20/11/64 12/46/65 
f 12/46/66 20/11/67 18/47/67 
f 14/48/68 20/11/69 15/45/70 
f 17/49/71 20/11/72 14/48/72 
f 18/47/73 20/11/74 19/7/74 
f 85/37/75 73/3/76 13/2/77 
f 85/50/75 20/11/78 73/51/76 
f 73/51/79 20/11/80 16/52/81 
f 13/2/82 86/38/83 85/37/75 
f 13/2/82 21/10/84 86/38/83 
f 86/53/83 20/11/85 85/50/75 
f 16/52/86 20/11/87 17/49/88 
f 21/9/84 20/11/89 86/53/83 
f 84/40/57 20/11/90 83/41/55 
f 23/2/91 28/6/92 29/5/93 
f 87/37/94 34/3/95 33/2/96 
f 87/50/94 88/8/97 34/51/95 
f 34/51/98 88/8/99 32/52/100 
f 33/2/101 89/38/102 87/37/94 
f 33/2/101 40/10/103 89/38/102 
f 89/53/102 88/8/104 87/50/94 
f 32/52/105 88/8/106 35/49/107 
f 35/49/108 88/8/109 36/48/109 
f 40/9/103 88/8/110 89/53/102 
f 39/7/111 88/8/110 40/9/103 
f 38/47/112 88/8/112 39/7/112 
f 90/37/113 91/38/114 33/2/115 
f 90/39/113 92/40/116 91/41/114 
f 91/38/114 76/10/117 33/2/115 
f 91/41/114 88/8/118 76/44/117 
f 33/2/119 77/3/120 90/37/113 
f 77/45/120 88/8/121 90/42/113 
f 76/44/122 88/8/123 37/46/124 
f 37/46/125 88/8/125 38/47/125 
f 36/48/126 88/8/127 77/45/128 
f 88/8/121 92/43/116 90/42/113 
f 92/40/116 88/8/129 91/41/114 
s 4
f 93/37/130 3/3/131 2/2/132 
f 93/50/130 9/8/133 3/51/131 
f 3/51/131 9/8/134 1/52/135 
f 2/2/136 94/38/137 93/37/130 
f 2/2/136 10/10/138 94/38/137 
f 94/53/137 9/8/139 93/50/130 
f 1/52/140 9/8/141 4/49/142 
f 4/49/143 9/8/144 5/48/144 
f 10/9/138 9/8/145 94/53/137 
f 7/47/146 9/8/147 8/7/147 
f 95/37/148 96/38/149 2/2/150 
f 95/39/148 97/40/151 96/41/149 
f 95/42/148 9/8/152 97/43/151 
f 96/38/149 71/10/153 2/2/150 
f 96/41/149 9/8/154 71/44/153 
f 2/2/155 72/3/156 95/37/148 
f 72/45/156 9/8/152 95/42/148 
f 71/44/157 9/8/158 6/46/159 
f 6/46/160 9/8/161 7/47/162 
f 5/48/163 9/8/164 72/45/165 
f 97/40/151 9/8/166 96/41/149 
f 98/37/167 24/3/168 23/2/169 
f 98/50/167 30/8/170 24/51/168 
f 24/51/171 30/8/172 22/52/173 
f 23/2/174 99/38/175 98/37/167 
f 23/2/174 31/10/176 99/38/175 
f 99/53/175 30/8/177 98/50/167 
f 22/52/178 30/8/179 25/49/180 
f 25/49/181 30/8/182 26/48/182 
f 31/9/176 30/8/183 99/53/175 
f 28/47/184 30/8/185 29/7/185 
f 100/37/186 101/38/187 23/2/188 
f 100/39/186 102/40/189 101/41/187 
f 100/42/186 30/8/190 102/43/189 
f 101/38/187 74/10/191 23/2/188 
f 101/41/187 30/8/192 74/44/191 
f 23/2/193 75/3/194 100/37/186 
f 75/45/194 30/8/190 100/42/186 
f 74/44/195 30/8/196 27/46/197 
f 27/46/198 30/8/199 28/47/200 
f 26/48/201 30/8/202 75/45/203 
f 102/40/189 30/8/204 101/41/187 
# 176 faces

