# Exported from Wings 3D 1.5.2.2014-03-27---23-49.mlab
mtllib Case_LODGeo.mtl
o Cube12
#8 vertices, 6 faces
v -27.46958174 -1.00000000 -74.76792573
v -27.46958174 -1.00000000 74.76789539
v -27.46958174 29.24604385 -74.76792573
v -27.46958174 29.24604385 74.76789539
v 27.28143496 -1.00000000 -74.76792573
v 27.28143496 -1.00000000 74.76789539
v 27.28143496 29.24604385 -74.76792573
v 27.28143496 29.24604385 74.76789539
vn -0.57735027 -0.57735027 -0.57735027
vn -0.57735027 -0.57735027 0.57735027
vn -0.57735027 0.57735027 -0.57735027
vn -0.57735027 0.57735027 0.57735027
vn 0.57735027 -0.57735027 -0.57735027
vn 0.57735027 -0.57735027 0.57735027
vn 0.57735027 0.57735027 -0.57735027
vn 0.57735027 0.57735027 0.57735027
g Cube12_default
usemtl default
s 1
f 1//1 5//5 6//6 2//2
f 2//2 4//4 3//3 1//1
f 2//2 6//6 8//8 4//4
f 3//3 7//7 5//5 1//1
f 4//4 8//8 7//7 3//3
f 5//5 7//7 8//8 6//6
