# Exported from Wings 3D 1.5.2.2014-03-27---23-49.mlab
mtllib Decals.mtl
o Decals
#92 vertices, 64 faces
v -1.83953680 18.04508470 -10.04422259
v 0.14630266 18.04508470 -4.11763026
v 0.14630266 18.04508470 -10.04422259
v -1.83953680 18.04508470 -4.11763026
v -2.38147990 18.04508470 5.33658197
v -3.17338955 18.04508470 5.6757472e-2
v -3.17338955 18.04508470 5.33658197
v -2.38147990 18.04508470 5.6757472e-2
v -2.38147990 18.04508470 3.54219624
v -1.99170419 18.04508470 3.54219624
v -2.38147990 18.04508470 1.33827501
v -1.99170419 18.04508470 1.33827501
v -1.30145963 18.04508470 5.19674036
v -2.19691043 18.04508470 3.62611311
v -2.19691043 18.04508470 5.19674036
v -1.30145963 18.04508470 3.62611311
v -1.23692880 18.04508470 5.26987728
v -1.23692880 18.04508470 3.55297619
v 0.29287162 18.04508470 5.26987728
v 0.29287162 18.04508470 3.55297619
v -11.07992049 12.85275159 -2.23090058
v -11.07992049 11.86156170 1.23958561
v -11.07992049 12.85275159 1.23958561
v -11.07992049 11.86156170 -2.23090058
v -11.07992049 14.66184808 -2.23090058
v -11.07992049 13.14440590 4.44311133
v -11.07992049 14.66184808 4.44311133
v -11.07992049 13.14440590 -2.23090058
v -11.07992049 0.98773866 1.11576556
v -11.07992049 4.47803734 -4.99614076
v -11.07992049 0.98773866 -4.99614076
v -11.07992049 4.47803734 1.11576556
v -11.07992049 13.56485385 -8.74073005
v -11.07992049 14.45997708 -7.17013257
v -11.07992049 14.45997708 -8.74073005
v -11.07992049 13.56485385 -7.17013257
v -11.07992049 13.50011457 -8.81389675
v -11.07992049 13.50011457 -7.09696587
v -11.07992049 11.97013548 -8.81389675
v -11.07992049 11.97013548 -7.09696587
v 7.16451287 0.17661652 1.40536594
v 6.73084309 0.74250450 5.33620735
v 7.16451287 0.17661652 5.33620735
v 6.73084309 0.74250450 1.40536594
v 7.80900912 5.7531804e-2 -5.25160358
v 7.63757213 0.44942181 -2.50167235
v 7.80037325 5.7531804e-2 -2.50167235
v 7.64433194 0.45359085 -5.25160358
v 7.11688848 1.12879709 -2.50167235
v 7.12287404 1.13505065 -5.85373153
v 7.64844142 0.45639007 -7.77935277
v 7.12626883 1.13784987 -7.77935277
v 1.92315743 2.46259362 54.69349761
v 2.81926494 2.26383923 61.34815326
v 1.92315743 2.46259362 61.34815326
v 2.81926494 2.26383923 54.69349761
v 3.73644852 2.30418231 61.34815326
v 3.73644852 2.30418231 54.69349761
v 4.16493215 2.43956708 54.69349761
v 4.16493215 2.43956708 61.34815326
v 5.79731810 7.59887464 -20.80444195
v 6.22135477 6.75271458 -39.67227680
v 5.79731810 7.59887464 -39.67227680
v 6.22135477 6.75271458 -20.80444195
v 6.41313843 5.81932413 -39.50483661
v 6.41313843 5.81932413 -20.80444195
v 6.35689297 4.86739147 -39.11491534
v 6.35689297 4.86739147 -20.80444195
v 6.05586439 3.96276219 -38.69407359
v 6.05586439 3.96276219 -20.80444195
v 5.53508817 3.17276638 -38.28427052
v 5.53508817 3.17276638 -20.80444195
v -2.14980706 13.27345355 54.69349761
v -3.04591458 13.47220793 61.34815326
v -2.14980706 13.27345355 61.34815326
v -3.04591458 13.47220793 54.69349761
v -3.96309816 13.43186485 61.34815326
v -3.96309816 13.43186485 54.69349761
v -4.39158179 13.29648008 54.69349761
v -4.39158179 13.29648008 61.34815326
v -6.02396773 8.13717252 -20.80444195
v -6.44800440 8.98333258 -39.67227680
v -6.02396773 8.13717252 -39.67227680
v -6.44800440 8.98333258 -20.80444195
v -6.63978807 9.91672303 -39.50483661
v -6.63978807 9.91672303 -20.80444195
v -6.58354260 10.86865569 -39.11491534
v -6.58354260 10.86865569 -20.80444195
v -6.28251403 11.77328498 -38.69407359
v -6.28251403 11.77328498 -20.80444195
v -5.76173781 12.56328078 -38.28427052
v -5.76173781 12.56328078 -20.80444195
vt 3.1029181e-2 0.39291510
vt 3.1029181e-2 0.47052178
vt 3.3129952e-2 0.58964832
vt 3.3129952e-2 0.69222079
vt 3.3344064e-2 0.46797347
vt 3.3344064e-2 0.56916119
vt 3.4211815e-2 0.89887724
vt 3.4211815e-2 0.99235241
vt 3.5458568e-2 0.69748176
vt 3.5458568e-2 0.73483995
vt 3.5458568e-2 0.77234551
vt 3.5458568e-2 0.79061934
vt 3.5486280e-2 0.79945016
vt 3.5486280e-2 0.88855736
vt 3.8237718e-2 0.39304381
vt 3.8283973e-2 0.45045798
vt 3.8292625e-2 0.56863364
vt 3.9590200e-2 0.70287064
vt 3.9590200e-2 0.78922922
vt 0.29726595 0.70287064
vt 0.29726595 0.78922922
vt 0.30639758 0.69748176
vt 0.30639758 0.73476626
vt 0.30639758 0.77234551
vt 0.30639758 0.79061934
vt 0.39124651 0.56375578
vt 0.39124651 0.59276074
vt 0.39124651 0.56375578
vt 0.39124651 0.59276074
vt 0.39298764 0.58964832
vt 0.39298764 0.69222079
vt 0.39641177 0.62176569
vt 0.39641177 0.62176569
vt 0.40853028 0.65176397
vt 0.40853028 0.65176397
vt 0.42144345 0.68017294
vt 0.42144345 0.68017294
vt 0.43415795 0.70878056
vt 0.43415795 0.70878056
vt 0.44581675 0.89887724
vt 0.44581675 0.99235241
vt 0.45329820 0.39229184
vt 0.45334490 0.45032807
vt 0.45750788 0.79945016
vt 0.45750788 0.88855736
vt 0.46984313 0.39291510
vt 0.46984313 0.47052178
vt 0.47027803 0.71363088
vt 0.47027803 0.98606188
vt 0.54423535 0.56878514
vt 0.66809370 3.5758183e-2
vt 0.66809370 0.29506618
vt 0.68058870 0.30594418
vt 0.68058870 0.45764818
vt 0.83458656 0.46797347
vt 0.83458656 0.56916119
vt 0.83486989 0.45025538
vt 0.83487860 0.56878514
vt 0.94665870 0.30594418
vt 0.94665870 0.45764818
vt 0.94767903 0.71363088
vt 0.94767903 0.98606188
vt 0.95915370 3.5758183e-2
vt 0.95915370 0.29506618
vt 0.97233896 0.56375578
vt 0.97233896 0.59276074
vt 0.97233896 0.62176569
vt 0.97233896 0.65156531
vt 0.97233896 0.68017294
vt 0.97233896 0.70878056
vt 0.97233896 0.56375578
vt 0.97233896 0.59276074
vt 0.97233896 0.62176569
vt 0.97233896 0.65156531
vt 0.97233896 0.68017294
vt 0.97233896 0.70878056
vn 0.0000000e+0 1.00000000 0.0000000e+0
vn 0.0000000e+0 1.00000000 0.0000000e+0
vn 0.0000000e+0 1.00000000 0.0000000e+0
vn 0.0000000e+0 1.00000000 0.0000000e+0
vn 0.0000000e+0 1.00000000 0.0000000e+0
vn 0.0000000e+0 1.00000000 0.0000000e+0
vn 0.0000000e+0 1.00000000 0.0000000e+0
vn 0.0000000e+0 1.00000000 0.0000000e+0
vn 0.0000000e+0 1.00000000 0.0000000e+0
vn 0.0000000e+0 1.00000000 0.0000000e+0
vn 0.0000000e+0 1.00000000 0.0000000e+0
vn 0.0000000e+0 1.00000000 0.0000000e+0
vn 0.0000000e+0 1.00000000 0.0000000e+0
vn 0.0000000e+0 1.00000000 0.0000000e+0
vn 0.0000000e+0 1.00000000 0.0000000e+0
vn 0.0000000e+0 1.00000000 0.0000000e+0
vn 0.0000000e+0 1.00000000 0.0000000e+0
vn 0.0000000e+0 1.00000000 0.0000000e+0
vn 0.0000000e+0 1.00000000 0.0000000e+0
vn 0.0000000e+0 1.00000000 0.0000000e+0
vn -1.00000000 0.0000000e+0 0.0000000e+0
vn -1.00000000 0.0000000e+0 0.0000000e+0
vn -1.00000000 0.0000000e+0 0.0000000e+0
vn -1.00000000 0.0000000e+0 0.0000000e+0
vn -1.00000000 0.0000000e+0 0.0000000e+0
vn -1.00000000 0.0000000e+0 0.0000000e+0
vn -1.00000000 0.0000000e+0 0.0000000e+0
vn -1.00000000 0.0000000e+0 0.0000000e+0
vn -1.00000000 0.0000000e+0 0.0000000e+0
vn -1.00000000 0.0000000e+0 0.0000000e+0
vn -1.00000000 0.0000000e+0 0.0000000e+0
vn -1.00000000 0.0000000e+0 0.0000000e+0
vn -1.00000000 -2.3293577e-14 0.0000000e+0
vn -1.00000000 0.0000000e+0 0.0000000e+0
vn -1.00000000 0.0000000e+0 0.0000000e+0
vn -1.00000000 -2.3293577e-14 0.0000000e+0
vn -1.00000000 -2.3293577e-14 0.0000000e+0
vn -1.00000000 0.0000000e+0 0.0000000e+0
vn -1.00000000 0.0000000e+0 0.0000000e+0
vn -1.00000000 0.0000000e+0 0.0000000e+0
vn 0.79372668 0.60827458 0.0000000e+0
vn 0.79372668 0.60827458 0.0000000e+0
vn 0.79372668 0.60827458 0.0000000e+0
vn 0.79372668 0.60827458 0.0000000e+0
vn 0.92341997 0.38378026 2.8759597e-3
vn 0.88683013 0.46208650 2.8967866e-3
vn 0.92347944 0.38363695 2.9000901e-3
vn 0.83113654 0.55606242 2.5767269e-3
vn 0.79338650 0.60871217 2.7128905e-3
vn 0.79338712 0.60871319 2.2666535e-3
vn 0.79354388 0.60850932 2.1237254e-3
vn 0.79376170 0.60822458 2.2835273e-3
vn -0.21653529 -0.97627479 -4.3622228e-16
vn -0.13070576 -0.99142120 -4.8567306e-16
vn -0.21653529 -0.97627479 -4.3622228e-16
vn -4.3212382e-2 -0.99906591 -4.8564339e-16
vn 0.17410504 -0.98472709 -5.1671695e-16
vn 0.17410504 -0.98472709 -5.1953531e-16
vn 0.30128141 -0.95353527 -5.1977478e-16
vn 0.30128141 -0.95353527 -4.4552124e-16
vn 0.89402253 0.44802201 -1.2434093e-16
vn 0.92959862 0.36857348 -1.1680587e-16
vn 0.89402253 0.44802201 -9.9472741e-17
vn 0.95832186 0.28569078 -1.0850681e-16
vn 0.99332001 0.11539220 -7.1163629e-17
vn 0.99960851 2.7979112e-2 -3.3616205e-17
vn 0.98933176 -0.14568000 1.7130050e-17
vn 0.97273389 -0.23192409 4.7397180e-17
vn 0.91783212 -0.39696877 8.7183746e-17
vn 0.87956369 -0.47578116 9.7624598e-17
vn 0.83491101 -0.55038496 1.1928849e-16
vn 0.83491101 -0.55038496 1.0740103e-16
vn 0.21653529 0.97627479 -5.8162971e-16
vn 0.13070576 0.99142120 -7.0949575e-16
vn 0.21653529 0.97627479 -1.1632594e-15
vn 4.3212382e-2 0.99906591 -3.1876311e-16
vn -0.17410504 0.98472709 -5.8143437e-16
vn -0.17410504 0.98472709 -3.8468430e-16
vn -0.30128141 0.95353527 -6.7840041e-16
vn -0.30128141 0.95353527 -5.9402832e-16
vn -0.89402253 -0.44802201 7.4604556e-17
vn -0.92959862 -0.36857348 1.0210978e-16
vn -0.89402253 -0.44802201 9.9472741e-17
vn -0.95832186 -0.28569078 1.1892341e-16
vn -0.99332001 -0.11539220 1.6773133e-16
vn -0.99960851 -2.7979112e-2 1.8835308e-16
vn -0.98933176 0.14568000 2.0735811e-16
vn -0.97273389 0.23192409 2.2929819e-16
vn -0.91783212 0.39696877 2.2388931e-16
vn -0.87956369 0.47578116 2.6288895e-16
vn -0.83491101 0.55038496 2.6115522e-16
vn -0.83491101 0.55038496 3.2220309e-16
g Decals_Decals
usemtl Decals
s 1
f 1/21/1 4/19/4 2/18/2
f 2/18/2 3/20/3 1/21/1
f 5/5/5 8/55/8 6/56/6
f 6/56/6 7/6/7 5/5/5
f 10/1/10 11/47/11 9/2/9
f 10/1/10 12/46/12 11/47/11
f 13/53/13 16/59/16 14/60/14
f 13/53/13 17/52/17 16/59/16
f 14/60/14 15/54/15 13/53/13
f 17/52/17 18/64/18 16/59/16
f 17/52/17 19/51/19 18/64/18
f 19/51/19 20/63/20 18/64/18
f 21/4/21 24/3/24 22/30/22
f 22/30/22 23/31/23 21/4/21
f 25/8/25 28/7/28 26/40/26
f 26/40/26 27/41/27 25/8/25
f 29/61/29 32/62/32 30/49/30
f 30/49/30 31/48/31 29/61/29
f 33/53/33 36/59/36 34/60/34
f 33/53/33 37/52/37 36/59/36
f 34/60/34 35/54/35 33/53/33
f 37/52/37 38/64/38 36/59/36
f 37/52/37 39/51/39 38/64/38
f 39/51/39 40/63/40 38/64/38
f 41/44/41 44/45/44 42/14/42
f 42/14/42 43/13/43 41/44/41
f 45/42/45 48/43/48 46/16/46
f 46/16/46 47/15/47 45/42/45
f 48/43/48 49/17/49 46/16/46
f 48/43/48 50/50/50 49/17/49
f 48/43/48 51/57/51 50/50/50
f 51/57/51 52/58/52 50/50/50
f 53/22/53 56/23/56 54/10/54
f 54/10/54 55/9/55 53/22/53
f 56/23/56 57/11/57 54/10/54
f 56/23/56 58/24/58 57/11/57
f 58/24/58 59/25/59 57/11/57
f 59/25/59 60/12/60 57/11/57
f 61/71/61 64/72/64 62/29/62
f 62/29/62 63/28/63 61/71/61
f 64/72/64 65/33/65 62/29/62
f 64/72/64 66/73/66 65/33/65
f 66/73/66 67/35/67 65/33/65
f 66/73/66 68/74/68 67/35/67
f 68/74/68 69/37/69 67/35/67
f 68/74/68 70/75/70 69/37/69
f 70/75/70 71/39/71 69/37/69
f 70/75/70 72/76/72 71/39/71
f 73/22/73 76/23/76 74/10/74
f 74/10/74 75/9/75 73/22/73
f 76/23/76 77/11/77 74/10/74
f 76/23/76 78/24/78 77/11/77
f 78/24/78 79/25/79 77/11/77
f 79/25/79 80/12/80 77/11/77
f 81/65/81 84/66/84 82/27/82
f 82/27/82 83/26/83 81/65/81
f 84/66/84 85/32/85 82/27/82
f 84/66/84 86/67/86 85/32/85
f 86/67/86 87/34/87 85/32/85
f 86/67/86 88/68/88 87/34/87
f 88/68/88 89/36/89 87/34/87
f 88/68/88 90/69/90 89/36/89
f 90/69/90 91/38/91 89/36/89
f 90/69/90 92/70/92 91/38/91
