# Exported from Wings 3D 1.5.2.2014-03-27---23-49.mlab
mtllib Glow.mtl
o Glow
#32 vertices, 18 faces
v 2.49864984 -6.23601824 -54.17482066
v 2.49864984 -6.49911461 -47.82232478
v 2.49864984 -6.49911461 -54.17482066
v 2.49864984 -6.23601824 -47.82232478
v -2.72529941 -6.23601824 -54.17482066
v -2.72529941 -6.49911461 -47.82232478
v -2.72529941 -6.49911461 -54.17482066
v -2.72529941 -6.23601824 -47.82232478
v 7.08686626 8.41425468 19.17399441
v 6.67201340 8.41425468 19.17399441
v 6.87943983 8.32891739 19.17399441
v 6.67201340 8.82917518 19.17399441
v 7.08686626 8.82917518 19.17399441
v 7.17287977 8.62212066 19.17399441
v 6.58640561 8.62212066 19.17399441
v 6.87943983 8.91532392 19.17399441
v 7.08450676 14.76768574 -14.84194184
v 7.08450676 14.57558221 -12.48575525
v 7.08450676 14.57558221 -14.84194184
v 7.08450676 14.76768574 -12.48575525
v 7.08450676 14.57558221 10.69448047
v 7.08450676 14.76768574 7.90238780
v 7.08450676 14.76768574 10.69448047
v 7.08450676 14.57558221 7.90238780
v 7.08450676 1.84184223 -15.02773657
v 7.08450676 1.54826254 -12.56028034
v 7.08450676 1.54826254 -15.02773657
v 7.08450676 1.84184223 -12.56028034
v 7.08450676 1.54826254 10.97429819
v 7.08450676 1.84184223 8.84682240
v 7.08450676 1.84184223 10.97429819
v 7.08450676 1.54826254 8.84682240
vt 3.1000000e-2 1.24590000
vt 9.4300000e-2 1.09300000
vt 9.4300000e-2 1.39870000
vt 0.24720000 1.02970000
vt 0.24720000 1.46210000
vt 0.40010000 1.09300000
vt 0.40010000 1.39870000
vt 0.46340000 1.24590000
vt 0.51800000 1.01990000
vt 0.51800000 1.48150000
vt 0.52200000 1.52400000
vt 0.52200000 1.98550000
vt 0.97950000 1.01990000
vt 0.97950000 1.48150000
vt 0.98350000 1.52400000
vt 0.98350000 1.98550000
vn 1.00000000 0.0000000e+0 0.0000000e+0
vn 1.00000000 0.0000000e+0 0.0000000e+0
vn 1.00000000 0.0000000e+0 0.0000000e+0
vn 1.00000000 0.0000000e+0 0.0000000e+0
vn -1.00000000 0.0000000e+0 0.0000000e+0
vn -1.00000000 0.0000000e+0 0.0000000e+0
vn -1.00000000 0.0000000e+0 0.0000000e+0
vn -1.00000000 0.0000000e+0 0.0000000e+0
vn 0.0000000e+0 0.0000000e+0 1.00000000
vn 0.0000000e+0 0.0000000e+0 1.00000000
vn 0.0000000e+0 0.0000000e+0 1.00000000
vn 0.0000000e+0 0.0000000e+0 1.00000000
vn 0.0000000e+0 0.0000000e+0 1.00000000
vn 0.0000000e+0 0.0000000e+0 1.00000000
vn 0.0000000e+0 0.0000000e+0 1.00000000
vn 0.0000000e+0 0.0000000e+0 1.00000000
vn 1.00000000 0.0000000e+0 0.0000000e+0
vn 1.00000000 0.0000000e+0 0.0000000e+0
vn 1.00000000 0.0000000e+0 0.0000000e+0
vn 1.00000000 0.0000000e+0 0.0000000e+0
vn 1.00000000 0.0000000e+0 0.0000000e+0
vn 1.00000000 0.0000000e+0 0.0000000e+0
vn 1.00000000 0.0000000e+0 0.0000000e+0
vn 1.00000000 0.0000000e+0 0.0000000e+0
vn 1.00000000 0.0000000e+0 0.0000000e+0
vn 1.00000000 0.0000000e+0 0.0000000e+0
vn 1.00000000 0.0000000e+0 0.0000000e+0
vn 1.00000000 0.0000000e+0 0.0000000e+0
vn 1.00000000 0.0000000e+0 0.0000000e+0
vn 1.00000000 0.0000000e+0 0.0000000e+0
vn 1.00000000 0.0000000e+0 0.0000000e+0
vn 1.00000000 0.0000000e+0 0.0000000e+0
g Glow_Glow
usemtl Glow
s 1
f 1/14/1 4/10/4 2/9/2
f 2/9/2 3/13/3 1/14/1
f 5/14/5 7/13/7 6/9/6
f 6/9/6 8/10/8 5/14/5
f 9/3/9 12/6/12 10/2/10
f 9/3/9 13/7/13 12/6/12
f 9/3/9 14/5/14 13/7/13
f 10/2/10 11/1/11 9/3/9
f 12/6/12 15/4/15 10/2/10
f 13/7/13 16/8/16 12/6/12
f 17/16/17 20/12/20 18/11/18
f 18/11/18 19/15/19 17/16/17
f 21/11/21 24/15/24 22/16/22
f 22/16/22 23/12/23 21/11/21
f 25/16/25 28/12/28 26/11/26
f 26/11/26 27/15/27 25/16/25
f 29/11/29 32/15/32 30/16/30
f 30/16/30 31/12/31 29/11/29
