# 3ds Max Wavefront OBJ Exporter v0.97b - (c)2007 guruware
# File Created: 08.01.2015 02:52:40

mtllib Rocket_LOD3.mtl

#
# object Rocket
#

v  -30.9589 -12.9119 -227.1647
v  -23.3811 -23.3813 -142.3985
v  -33.5513 -0.0498 -227.1647
v  -23.7801 -23.7800 -227.1647
v  -28.8649 -12.0147 -229.4074
v  -30.9589 12.8124 -227.1647
v  -28.8649 11.9150 -229.4074
v  -30.5602 12.6127 -142.3985
v  -12.9121 -30.9590 -227.1647
v  11.9151 -28.8651 -229.4074
v  12.8123 -30.9590 -227.1647
v  -0.0499 -33.5512 -227.1647
v  28.7654 11.9150 -229.4074
v  30.8593 12.8124 -227.1647
v  33.4516 -0.0498 -227.1647
v  -12.9121 30.8593 -227.1647
v  -0.0499 33.4517 -227.1647
v  -23.7801 23.6805 -227.1647
v  -0.0499 -33.5512 -144.1924
v  -0.0499 -33.1525 -142.3985
v  23.2816 -23.3813 -142.3985
v  23.6803 -23.7800 -227.1647
v  30.8593 -12.9119 -227.1647
v  24.4781 -10.2199 -131.6345
v  24.4781 10.1201 -131.6345
v  23.6803 23.6805 -227.1647
v  12.8123 30.8593 -227.1647
v  10.1203 24.4779 -131.6345
v  -10.2198 24.4779 -131.6345
v  12.8123 -30.9590 215.5040
v  10.1203 -24.5777 -101.5850
v  23.6803 -23.7800 215.5040
v  -0.0499 -33.5512 -91.7179
v  -0.0499 -33.5512 215.5040
v  -0.0499 -24.0792 228.9588
v  30.8593 -12.9119 215.5040
v  16.9004 -17.0000 228.9588
v  24.4781 -10.2199 -101.5850
v  -0.0499 -33.0527 -93.5121
v  -18.8944 -18.8946 -101.5850
v  -12.9121 -30.9590 215.5040
v  33.4516 -0.0498 215.5040
v  -17.0001 -17.0000 229.4074
v  -23.7801 -23.7800 215.5040
v  30.8593 12.8124 215.5040
v  23.9795 -0.0498 228.9588
v  24.4781 10.1201 -101.5850
v  -30.9589 -12.9119 215.5040
v  -24.5776 -10.2199 -101.5850
v  -24.0790 -0.0498 229.4074
v  -33.5513 -0.0498 215.5040
v  -30.9589 12.8124 215.5040
v  23.6803 23.6805 215.5040
v  12.8123 30.8593 215.5040
v  16.9004 16.9002 228.9588
v  10.1203 24.4779 -101.5850
v  -24.5776 10.1201 -101.5850
v  -17.0001 16.9002 229.4074
v  -23.7801 23.6805 215.5040
v  -0.0499 33.4517 215.5040
v  -12.9121 30.8593 215.5040
v  -10.2198 24.4779 -101.5850
v  -0.0499 -26.5718 -131.6345
v  -0.0499 -26.6716 -101.5850
v  -0.0499 -26.0733 -103.3789
v  -0.0499 -26.0733 -129.8406
v  -18.7946 -18.7947 -131.6345
v  2.2434 -15.2052 154.0595
v  -1.2463 -15.2052 220.8856
v  -0.2493 -51.0000 199.3578
v  1.1468 -51.0000 149.1260
# 71 vertices

vn -0.8259 -0.4060 -0.3911
vn -0.9406 -0.3188 0.1170
vn -0.9194 -0.0616 -0.3884
vn -0.6042 -0.6915 -0.3958
vn -0.7452 -0.6515 0.1420
vn -0.2356 -0.0804 -0.9685
vn -0.8731 0.2954 -0.3878
vn -0.5542 0.0373 -0.8315
vn -0.9914 0.0670 0.1125
vn -0.4116 -0.3583 -0.8380
vn -0.1651 -0.3355 -0.9275
vn -0.2954 -0.8731 -0.3878
vn 0.0908 -0.2662 -0.9596
vn 0.4060 -0.8259 -0.3911
vn 0.0616 -0.9194 -0.3884
vn 0.2356 0.0804 -0.9685
vn 0.8259 0.4060 -0.3911
vn 0.9194 0.0616 -0.3884
vn -0.0908 0.2662 -0.9596
vn -0.4060 0.8259 -0.3911
vn -0.0616 0.9194 -0.3884
vn -0.4376 -0.8895 0.1311
vn -0.6915 0.6042 -0.3959
vn -0.3355 0.1651 -0.9275
vn -0.8896 0.4376 0.1311
vn -0.0670 -0.9914 0.1125
vn -0.0373 -0.5543 -0.8315
vn 0.0613 -0.9244 0.3764
vn -0.2993 -0.8756 0.3792
vn 0.3188 -0.9406 0.1170
vn 0.3583 -0.4116 -0.8380
vn 0.6915 -0.6042 -0.3958
vn 0.3355 -0.1651 -0.9274
vn 0.8731 -0.2954 -0.3878
vn 0.5542 -0.0373 -0.8315
vn 0.9914 -0.0670 0.1125
vn 0.9406 0.3188 0.1170
vn 0.4116 0.3583 -0.8380
vn 0.6042 0.6915 -0.3958
vn 0.1651 0.3355 -0.9275
vn 0.2954 0.8731 -0.3878
vn 0.0373 0.5542 -0.8315
vn 0.0670 0.9914 0.1125
vn -0.3188 0.9406 0.1170
vn -0.3583 0.4115 -0.8380
vn -0.6515 0.7452 0.1420
vn 0.6515 -0.7452 0.1420
vn 0.8896 -0.4376 0.1311
vn 0.7452 0.6515 0.1420
vn 0.4376 0.8896 0.1311
vn 0.3171 -0.9359 0.1536
vn 0.4376 -0.8896 -0.1311
vn 0.6466 -0.7400 0.1851
vn 0.0659 -0.9894 -0.1298
vn -0.0666 -0.9868 0.1479
vn 0.3491 -0.8340 0.4273
vn 0.8841 -0.4347 0.1714
vn 0.6382 -0.6333 0.4378
vn 0.7452 -0.6515 -0.1420
vn -0.0605 -0.8915 -0.4489
vn 0.3952 -0.8004 -0.4508
vn 0.0037 -0.9135 0.4068
vn -0.3175 -0.9399 -0.1256
vn -0.4347 -0.8841 0.1714
vn -0.3488 -0.8429 0.4096
vn 0.9868 -0.0666 0.1479
vn 0.8430 -0.3488 0.4096
vn 0.9399 -0.3175 -0.1256
vn -0.6332 -0.6382 0.4379
vn -0.7400 -0.6466 0.1851
vn 0.9359 0.3171 0.1537
vn 0.9135 0.0037 0.4068
vn 0.9893 0.0659 -0.1298
vn -0.6515 -0.7452 -0.1420
vn -0.8340 -0.3492 0.4273
vn -0.9359 -0.3171 0.1536
vn -0.8896 -0.4376 -0.1310
vn -0.9135 -0.0037 0.4068
vn -0.9868 0.0666 0.1479
vn -0.9894 -0.0659 -0.1298
vn -0.8429 0.3488 0.4096
vn -0.8841 0.4347 0.1714
vn 0.7400 0.6466 0.1851
vn 0.8339 0.3491 0.4274
vn 0.8896 0.4376 -0.1311
vn 0.4347 0.8841 0.1714
vn 0.6333 0.6382 0.4378
vn 0.6515 0.7452 -0.1420
vn -0.9399 0.3175 -0.1255
vn -0.6382 0.6332 0.4379
vn -0.6466 0.7400 0.1852
vn -0.7452 0.6515 -0.1420
vn 0.0666 0.9868 0.1479
vn 0.3488 0.8430 0.4096
vn 0.3175 0.9399 -0.1255
vn -0.3171 0.9359 0.1536
vn -0.0037 0.9135 0.4068
vn -0.0659 0.9894 -0.1298
vn -0.3491 0.8340 0.4273
vn -0.4376 0.8896 -0.1311
vn -0.0605 -0.9180 0.3920
vn 0.0573 -0.8837 -0.4645
vn -0.2838 -0.8447 -0.4538
vn -0.0655 -0.9871 -0.1462
vn 0.3157 -0.9393 -0.1342
vn 0.0638 -0.9895 0.1295
vn -0.3143 -0.9410 0.1258
vn 0.4094 -0.8240 0.3916
vn 0.4387 -0.8907 0.1191
vn 0.8905 -0.4357 -0.1312
vn 0.9410 -0.3143 0.1258
vn 0.9871 -0.0655 -0.1462
vn -0.4357 -0.8905 -0.1312
vn -0.3157 0.9393 -0.1342
vn -0.4387 0.8907 0.1191
vn -0.6510 0.7457 -0.1418
vn 0.9895 0.0638 0.1296
vn 0.3143 0.9410 0.1258
vn -0.0638 0.9895 0.1295
vn 0.0655 0.9871 -0.1462
vn -0.9410 0.3143 0.1258
vn -0.9895 -0.0638 0.1296
vn -0.9871 0.0655 -0.1462
vn 0.0313 -0.1643 0.9859
vn 0.1593 0.0103 0.9872
vn -0.1877 -0.0129 0.9821
vn 0.0047 0.1808 0.9835
vn 0.9393 0.3157 -0.1342
vn 0.8907 0.4387 0.1191
vn 0.7457 0.6510 -0.1418
vn -0.8905 0.4357 -0.1312
vn -0.8756 0.2993 0.3792
vn -0.9180 0.0605 0.3920
vn -0.8286 0.4108 0.3805
vn 0.1532 0.1755 0.9725
vn 0.6550 0.7464 0.1177
vn 0.9995 -0.0306 -0.0000
vn -0.9996 -0.0278 -0.0000
vn 0.4357 0.8905 -0.1312
vn -0.9393 -0.3157 -0.1342
vn -0.8907 -0.4387 0.1191
vn -0.7457 -0.6510 -0.1418
vn 0.7464 -0.6550 0.1178
vn 0.6510 -0.7457 -0.1418
vn -0.1769 -0.2027 0.9631
vn -0.8240 -0.4094 0.3916
vn -0.8731 -0.2957 0.3876
vn -0.9244 -0.0613 0.3765
vn -0.4108 -0.8286 0.3805
vn 0.1755 -0.1532 0.9725
# 150 vertex normals

vt 0.8125 0.3937 0.0000
vt 0.8750 0.5061 0.0000
vt 0.7498 0.3937 0.0000
vt 0.8747 0.3937 0.0000
vt 0.0248 0.3019 0.0000
vt 0.0507 0.3279 0.0000
vt 0.0248 0.3291 0.0000
vt 0.0664 0.2766 0.0000
vt 0.0883 0.2803 0.0000
vt 0.6870 0.5061 0.0000
vt 0.6871 0.3937 0.0000
vt 0.0664 0.3544 0.0000
vt 0.1432 0.3738 0.0000
vt 0.3487 0.3779 0.0000
vt 0.3542 0.3842 0.0000
vt 0.2444 0.3842 0.0000
vt 0.5486 0.3032 0.0000
vt 0.5745 0.3021 0.0000
vt 0.5745 0.3293 0.0000
vt 0.2452 0.2470 0.0000
vt 0.3542 0.2470 0.0000
vt 0.9370 0.3937 0.0000
vt 0.1440 0.2574 0.0000
vt 0.6249 0.3937 0.0000
vt 0.9998 0.4928 0.0000
vt 0.9997 0.3937 0.0000
vt 1.0000 0.5061 0.0000
vt 0.0003 0.3937 0.0000
vt 0.1245 0.5061 0.0000
vt 0.0002 0.4928 0.0000
vt 0.0630 0.3937 0.0000
vt 0.4545 0.3738 0.0000
vt 0.5322 0.3546 0.0000
vt 0.2502 0.3937 0.0000
vt 0.1870 0.5271 0.0000
vt 0.1875 0.3937 0.0000
vt 0.3129 0.3937 0.0000
vt 0.3125 0.5271 0.0000
vt 0.5322 0.2768 0.0000
vt 0.4553 0.2574 0.0000
vt 0.5000 0.3937 0.0000
vt 0.4375 0.5271 0.0000
vt 0.4373 0.3937 0.0000
vt 0.5627 0.3937 0.0000
vt 0.5620 0.5271 0.0000
vt -0.0000 0.5061 0.0000
vt 0.1253 0.3937 0.0000
vt 0.3751 0.3937 0.0000
vt 0.0630 0.9746 0.0000
vt 0.0614 0.5732 0.0000
vt 0.1253 0.9746 0.0000
vt 0.0002 0.6076 0.0000
vt 0.0003 0.9746 0.0000
vt 0.5820 0.0530 0.0000
vt 0.3526 0.0614 0.0000
vt 0.4773 0.0355 0.0000
vt 0.6522 0.0795 0.0000
vt 0.4918 0.0759 0.0000
vt 0.1870 0.5732 0.0000
vt 0.1875 0.9746 0.0000
vt 0.0000 0.5915 0.0000
vt 0.3526 0.0294 0.0000
vt 0.9997 0.9746 0.0000
vt 0.8750 0.5732 0.0000
vt 0.9998 0.6076 0.0000
vt 0.9370 0.9746 0.0000
vt 0.2289 0.0355 0.0000
vt 0.6767 0.1104 0.0000
vt 0.2502 0.9746 0.0000
vt 1.0000 0.5915 0.0000
vt 0.2144 0.0759 0.0000
vt 0.1231 0.0530 0.0000
vt 0.6522 0.1416 0.0000
vt 0.5486 0.1104 0.0000
vt 0.3125 0.5732 0.0000
vt 0.3129 0.9746 0.0000
vt 0.8747 0.9746 0.0000
vt 0.0529 0.0795 0.0000
vt 0.8125 0.9746 0.0000
vt 0.8125 0.5732 0.0000
vt 0.1565 0.1104 0.0000
vt 0.0284 0.1104 0.0000
vt 0.7498 0.9746 0.0000
vt 0.0529 0.1416 0.0000
vt 0.5820 0.1678 0.0000
vt 0.3751 0.9746 0.0000
vt 0.4773 0.1853 0.0000
vt 0.4918 0.1452 0.0000
vt 0.4375 0.5732 0.0000
vt 0.4373 0.9746 0.0000
vt 0.6871 0.9746 0.0000
vt 0.6870 0.5732 0.0000
vt 0.2144 0.1452 0.0000
vt 0.1231 0.1678 0.0000
vt 0.6249 0.9746 0.0000
vt 0.3526 0.1914 0.0000
vt 0.5000 0.9746 0.0000
vt 0.2289 0.1853 0.0000
vt 0.5620 0.5732 0.0000
vt 0.5627 0.9746 0.0000
vt 1.0000 0.5271 0.0000
vt 0.0000 0.5732 0.0000
vt 1.0000 0.5732 0.0000
vt 0.0000 0.5676 0.0000
vt 1.0000 0.5676 0.0000
vt 0.0000 0.5314 0.0000
vt 0.8750 0.5271 0.0000
vt 1.0000 0.5314 0.0000
vt 0.0000 0.5271 0.0000
vt 0.6598 0.2100 0.0000
vt 0.6598 0.3503 0.0000
vt 0.9610 0.3050 0.0000
vt 0.9610 0.2002 0.0000
# 113 texture coords

g Rocket
usemtl 01___Default
s 1
f 1/1/1 2/2/2 3/3/3 
f 1/1/1 4/4/4 2/2/5 
f 3/5/3 5/6/6 1/7/1 
f 3/5/3 6/8/7 7/9/8 
f 3/3/3 8/10/9 6/11/7 
f 5/6/10 4/12/4 1/7/1 
f 5/6/11 9/13/12 4/12/4 
f 10/14/13 11/15/14 12/16/15 
f 13/17/16 14/18/17 15/19/18 
f 7/9/19 16/20/20 17/21/21 
f 4/4/4 9/22/12 2/2/22 
f 6/8/7 18/23/23 7/9/24 
f 6/11/7 8/10/25 18/24/23 
f 9/22/12 19/25/26 2/2/22 
f 9/22/12 12/26/15 19/25/26 
f 10/14/27 12/16/15 9/13/12 
f 19/25/26 20/27/28 2/2/29 
f 12/28/15 21/29/30 19/30/26 
f 11/31/14 21/29/30 12/28/15 
f 10/14/31 22/32/32 11/15/14 
f 10/14/33 23/33/34 22/32/32 
f 15/19/18 23/33/34 13/17/35 
f 15/34/18 24/35/36 23/36/34 
f 14/37/17 25/38/37 15/34/18 
f 13/17/38 26/39/39 14/18/17 
f 13/17/40 27/40/41 26/39/39 
f 17/21/21 27/40/41 13/17/42 
f 17/41/21 28/42/43 27/43/41 
f 16/44/20 29/45/44 17/41/21 
f 7/9/45 18/23/23 16/20/20 
f 18/24/23 8/10/46 16/44/20 
f 21/29/30 20/46/28 19/30/26 
f 22/47/32 21/29/47 11/31/14 
f 23/36/34 24/35/48 22/47/32 
f 26/48/39 25/38/49 14/37/17 
f 27/43/41 28/42/50 26/48/39 
f 30/49/51 31/50/52 32/51/53 
f 30/49/51 33/52/54 31/50/52 
f 30/49/51 34/53/55 33/52/54 
f 32/54/53 35/55/56 30/56/51 
f 32/54/53 36/57/57 37/58/58 
f 32/51/53 38/59/59 36/60/57 
f 33/52/54 39/61/60 31/50/61 
f 35/55/62 34/62/55 30/56/51 
f 34/63/55 40/64/63 33/65/54 
f 34/63/55 41/66/64 40/64/63 
f 35/55/65 41/67/64 34/62/55 
f 36/57/57 42/68/66 37/58/67 
f 36/60/57 38/59/68 42/69/66 
f 40/64/63 39/70/60 33/65/54 
f 43/71/69 44/72/70 41/67/64 
f 42/68/66 45/73/71 46/74/72 
f 42/69/66 47/75/73 45/76/71 
f 44/77/70 40/64/74 41/66/64 
f 43/71/75 48/78/76 44/72/70 
f 48/79/76 49/80/77 44/77/70 
f 50/81/78 51/82/79 48/78/76 
f 51/83/79 49/80/80 48/79/76 
f 50/81/81 52/84/82 51/82/79 
f 45/73/71 53/85/83 46/74/84 
f 45/76/71 47/75/85 53/86/83 
f 53/85/83 54/87/86 55/88/87 
f 53/86/83 56/89/88 54/90/86 
f 52/91/82 57/92/89 51/83/79 
f 58/93/90 59/94/91 52/84/82 
f 59/95/91 57/92/92 52/91/82 
f 54/87/86 60/96/93 55/88/94 
f 54/90/86 56/89/95 60/97/93 
f 60/96/93 61/98/96 58/93/97 
f 60/97/93 62/99/98 61/100/96 
f 58/93/99 61/98/96 59/94/91 
f 61/100/96 62/99/100 59/95/91 
f 20/27/28 63/101/101 2/2/29 
f 39/61/60 64/102/102 31/50/61 
f 39/70/60 40/64/103 64/103/102 
f 64/102/102 65/104/104 31/50/105 
f 40/64/103 65/105/104 64/103/102 
f 65/104/104 66/106/106 31/50/105 
f 65/105/104 67/107/107 66/108/106 
f 66/106/106 63/109/101 21/29/108 
f 67/107/107 63/101/101 66/108/106 
f 21/29/108 63/109/101 20/46/28 
f 17/41/21 29/45/44 28/42/43 
f 62/99/100 57/92/92 59/95/91 
f 38/59/68 47/75/73 42/69/66 
f 15/34/18 25/38/37 24/35/36 
f 31/50/105 66/106/106 21/29/109 
f 38/59/110 24/35/111 47/75/112 
f 55/88/94 60/96/93 58/93/97 
f 35/55/65 43/71/69 41/67/64 
f 65/105/104 40/64/113 67/107/107 
f 62/99/114 29/45/115 57/92/116 
f 24/35/111 25/38/117 47/75/112 
f 28/42/118 29/45/119 62/99/120 
f 5/6/11 10/14/27 9/13/12 
f 7/9/19 17/21/21 13/17/42 
f 29/45/121 67/107/122 49/80/123 
f 2/2/2 8/10/9 3/3/3 
f 32/54/53 37/58/58 35/55/56 
f 35/55/124 46/74/125 50/81/126 
f 46/74/125 58/93/127 50/81/126 
f 50/81/81 58/93/90 52/84/82 
f 47/75/128 25/38/129 56/89/130 
f 47/75/85 56/89/88 53/86/83 
f 51/83/79 57/92/89 49/80/80 
f 57/92/131 29/45/121 49/80/123 
f 5/6/6 13/17/16 10/14/13 
f 13/17/35 23/33/34 10/14/33 
f 8/10/132 67/107/133 29/45/134 
f 16/44/20 8/10/46 29/45/44 
f 46/74/125 55/88/135 58/93/127 
f 46/74/84 53/85/83 55/88/87 
f 25/38/129 28/42/136 56/89/130 
f 26/48/39 28/42/50 25/38/49 
f 68/110/137 69/111/137 70/112/137 
f 70/112/138 69/111/138 68/110/138 
f 3/5/3 7/9/8 5/6/6 
f 5/6/6 7/9/19 13/17/16 
f 56/89/139 28/42/118 62/99/120 
f 56/89/95 62/99/98 60/97/93 
f 49/80/140 67/107/141 40/64/142 
f 44/77/70 49/80/77 40/64/74 
f 21/29/109 24/35/143 38/59/144 
f 22/47/32 24/35/48 21/29/47 
f 31/50/105 21/29/109 38/59/144 
f 31/50/52 38/59/59 32/51/53 
f 43/71/75 50/81/78 48/78/76 
f 35/55/124 50/81/126 43/71/145 
f 2/2/146 67/107/147 8/10/148 
f 63/101/101 67/107/149 2/2/29 
f 68/110/137 70/112/137 71/113/137 
f 71/113/138 70/112/138 68/110/138 
f 35/55/124 37/58/150 46/74/125 
f 42/68/66 46/74/72 37/58/67 
# 134 faces

